<?xml version="1.0" encoding="utf-8"?>
<!-- Generator: Adobe Illustrator 27.9.0, SVG Export Plug-In . SVG Version: 6.00 Build 0)  -->
<svg version="1.1" id="Layer_1" xmlns="http://www.w3.org/2000/svg" xmlns:xlink="http://www.w3.org/1999/xlink" x="0px" y="0px"
	 viewBox="0 0 871 871" style="enable-background:new 0 0 871 871;" xml:space="preserve">
<style type="text/css">
	.st0{stroke:#FFFFFF;stroke-width:55;stroke-miterlimit:10;}
	.st1{stroke:#FFFFFF;stroke-width:15;stroke-miterlimit:10;}
	.st2{stroke:#000000;stroke-width:22;stroke-miterlimit:10;}
	.st3{fill:#FFFFFF;stroke:#FFFFFF;stroke-width:15;stroke-miterlimit:10;}
	.st4{fill:#FFFFFF;stroke:#FFFFFF;stroke-width:22;stroke-miterlimit:10;}
	.st5{stroke:#000000;stroke-width:4;stroke-miterlimit:10;}
</style>
<g>
	<g>
		<polygon points="76.58,650.4 76.58,252.3 421.08,451.2 421.07,848.96 		"/>
		<path d="M78.58,255.77l340.5,196.58l0,393.15L78.58,649.24V255.77 M74.58,248.84v402.71l348.5,200.87l0-402.38L74.58,248.84
			L74.58,248.84z"/>
	</g>
	<path class="st0" d="M304.06,493.75"/>
	<polygon class="st1" points="420.43,520.7 77.11,322.55 77.11,323.16 420.43,521.32 	"/>
	<polygon class="st1" points="420.43,581.33 77.24,383.31 77.24,383.92 420.43,581.95 	"/>
	<polygon class="st2" points="253.94,531.91 248.63,528.85 248.63,394.67 253.94,397.73 	"/>
	<polygon class="st3" points="122.88,491.2 74.58,463.34 74.58,447.4 122.88,475.26 	"/>
	<polygon class="st3" points="423.08,664.97 366.36,632.26 366.36,616.33 423.08,649.05 	"/>
	<polygon class="st3" points="286.29,586.73 210.97,543.28 210.97,527.35 286.29,570.8 	"/>
	<polygon class="st3" points="287.09,657.94 211.76,614.51 211.76,612.67 287.09,656.11 	"/>
	<polygon class="st3" points="423.08,735.87 366.09,703 366.09,701.17 423.08,734.03 	"/>
	<polygon class="st3" points="366.23,819.57 366.23,775.86 367.82,776.78 367.82,820.49 	"/>
	<polygon class="st3" points="287.09,730.04 74.58,607.54 74.58,609.38 287.09,731.88 	"/>
	<polygon class="st4" points="131.9,634.14 74.32,599.73 74.32,535.56 131.9,569.98 	"/>
	<polygon class="st3" points="358.41,421.82 143.58,297.79 143.58,289.82 358.41,413.85 	"/>
	<polygon class="st1" points="420.43,643.8 77.24,445.83 77.24,446.45 420.43,644.42 	"/>
	<g>
		<polygon class="st5" points="435.89,17.9 796.76,226.25 436.64,434.82 75.06,226.22 		"/>
		<polygon class="st3" points="393.24,395.36 448.96,427.51 436.34,434.82 380.61,402.67 		"/>
		<polygon class="st3" points="138.95,248.65 326.66,356.95 314.03,364.26 126.3,255.96 		"/>
		<polygon class="st3" points="479.79,345.26 535.48,377.4 522.87,384.7 467.17,352.56 		"/>
		<polygon class="st3" points="357.54,274.72 413.25,306.86 400.62,314.17 344.91,282.02 		"/>
		<polygon class="st3" points="743.55,195.7 542.86,311.88 540.15,310.32 740.85,194.14 		"/>
		<polygon class="st3" points="674.4,155.78 473.63,271.93 470.92,270.36 671.69,154.21 		"/>
		<polygon class="st3" points="617.86,122.79 257.09,331.41 254.38,329.84 615.16,121.23 		"/>
		<polygon class="st3" points="210.51,148.2 266.22,180.35 253.59,187.65 197.87,155.49 		"/>
		<polygon class="st3" points="330.07,217.2 385.77,249.34 373.15,256.64 317.44,224.49 		"/>
		<polygon class="st3" points="320.25,84.49 375.93,116.64 363.31,123.93 307.62,91.78 		"/>
		<polygon class="st3" points="440.04,153.64 495.71,185.77 483.1,193.07 427.43,160.93 		"/>
	</g>
	<g>
		<polygon class="st5" points="797,651.59 449.28,852.34 449.28,450.11 797,249.02 		"/>
		<polygon class="st3" points="624.69,750.88 620.26,753.44 620.26,351.06 624.69,348.5 		"/>
		<polygon class="st3" points="448.79,585.45 448.79,562.28 492.86,536.81 492.86,559.98 		"/>
		<polygon class="st3" points="576.28,511.68 576.28,488.5 620.37,463.01 620.37,486.19 		"/>
		<polygon class="st3" points="448.91,727.32 448.91,704.06 492.98,678.6 492.98,701.86 		"/>
		<polygon class="st3" points="576.28,653.74 576.28,630.48 620.37,605 620.37,628.27 		"/>
		<polygon class="st3" points="662.54,335.11 662.54,327.58 796.56,250.09 796.56,257.62 		"/>
		<polygon class="st3" points="662.42,391.7 662.42,384.17 761.34,326.98 761.34,334.51 		"/>
		<polygon class="st3" points="765.09,381.09 765.09,373.56 796.7,355.29 796.7,362.82 		"/>
		<polygon class="st3" points="624.76,462.23 624.76,454.57 668.75,429.14 668.75,436.8 		"/>
		<polygon class="st3" points="662.42,384.2 668.92,380.44 668.92,436.7 662.42,440.46 		"/>
		<polygon class="st3" points="754.83,330.74 761.34,326.98 761.34,383.26 754.83,387.02 		"/>
		<polygon class="st3" points="708.68,357.42 715.19,353.66 715.19,470.71 708.68,474.47 		"/>
		<polygon class="st3" points="761.03,436.7 761.03,444.23 662.23,501.32 662.23,493.79 		"/>
		<polygon class="st3" points="662.21,493.8 668.71,490.04 668.71,514 662.21,517.76 		"/>
		<polygon class="st3" points="754.52,440.46 761.03,436.7 761.03,460.66 754.52,464.42 		"/>
		<polygon class="st3" points="700.7,534.53 723.18,521.54 723.18,537.63 700.7,550.62 		"/>
		<polygon class="st3" points="761.05,515.75 761.05,531.5 662.21,588.59 662.21,572.85 		"/>
		<polygon class="st3" points="796.78,510.85 796.78,518.38 627.03,616.44 627.03,608.92 		"/>
		<polygon class="st3" points="767.69,596.8 767.69,608.44 656.23,672.8 656.23,661.17 		"/>
	</g>
</g>
</svg>
